# xmcd
#
# Track frame offsets:
#	225
#	14772
#	28545
#	37095
#	44772
#	53950
#	64905
#	77527
#	87227
#	100040
#	112702
#	123465
#	133587
#
# Disc length: 1918 seconds
#
# Revision: 0
# Processed by: cddbd v1.5.2PL0 Copyright (c) Steve Scherf et al.
# Submitted via: audiograbber 1.83.01
#
DISCID=ad077b0d
DTITLE=Stompin Tom Connors - Stompin' Tom Meets Big Joe Mufferaw
DYEAR=1970
DGENRE=Country
TTITLE0=Big Joe Mufferaw
TTITLE1=Sable Island
TTITLE2=Don't Overlove Your Baby
TTITLE3=Log Train
TTITLE4=Roll On Saskatchewan
TTITLE5=Jenny Donnelly
TTITLE6=The Coal Boat Song
TTITLE7=Algoma Central No. 69
TTITLE8=The Night That I Cremated Sam McGee
TTITLE9=Poor, Poor Farmer
TTITLE10=My Last Farewell
TTITLE11=Rocky Mountain Love
TTITLE12=Around The Bay and Back Again
EXTD=
EXTT0=
EXTT1=
EXTT2=
EXTT3=
EXTT4=
EXTT5=
EXTT6=
EXTT7=
EXTT8=
EXTT9=
EXTT10=
EXTT11=
EXTT12=
PLAYORDER=
